# Blender v2.91.0 OBJ File: 'under_water_buildings-1.blend'
# www.blender.org
mtllib cap.mtl
o coridoor_Cube.002
v 1.000000 0.459810 -0.053790
v 0.569430 0.901304 -0.053789
v 0.569430 -0.884992 -0.053790
v 1.000000 -0.443498 -0.053790
v -1.000000 0.459810 -0.053790
v -0.569430 0.901304 -0.053789
v -0.569430 -0.884992 -0.053790
v -1.000000 -0.443498 -0.053790
v 1.000000 0.459810 0.064841
v 0.569430 0.901304 0.064841
v 0.569430 -0.884992 0.064841
v 1.000000 -0.443498 0.064841
v -1.000000 0.459810 0.064841
v -0.569430 0.901304 0.064841
v -0.569430 -0.884992 0.064841
v -1.000000 -0.443498 0.064841
vt 0.458333 0.500000
vt 0.375000 0.500000
vt 0.375000 0.500000
vt 0.458333 0.500000
vt 0.541667 0.500000
vt 0.625000 0.500000
vt 0.625000 0.500000
vt 0.541667 0.500000
vt 0.458333 0.500000
vt 0.541667 0.500000
vt 0.625000 0.500000
vt 0.625000 0.500000
vt 0.541667 0.500000
vt 0.458333 0.500000
vt 0.375000 0.500000
vt 0.375000 0.500000
vn 0.7183 -0.2923 -0.6313
vn 0.3019 -0.7162 -0.6292
vn -0.3019 -0.7162 -0.6292
vn -0.7183 -0.2923 -0.6313
vn -0.7183 0.2923 -0.6313
vn -0.3019 0.7162 -0.6292
vn 0.3019 0.7162 -0.6292
vn 0.7183 0.2923 -0.6313
vn 0.7183 -0.2923 0.6313
vn 0.7183 0.2923 0.6313
vn 0.3019 0.7162 0.6292
vn -0.3019 0.7162 0.6292
vn -0.7183 0.2923 0.6313
vn -0.7183 -0.2923 0.6313
vn -0.3019 -0.7162 0.6292
vn 0.3019 -0.7162 0.6292
usemtl Material.003
s 1
f 4/1/1 3/2/2 7/3/3 8/4/4 5/5/5 6/6/6 2/7/7 1/8/8
f 12/9/9 9/10/10 10/11/11 14/12/12 13/13/13 16/14/14 15/15/15 11/16/16
f 2/7/7 6/6/6 14/12/12 10/11/11
f 8/4/4 7/3/3 15/15/15 16/14/14
f 3/2/2 4/1/1 12/9/9 11/16/16
f 5/5/5 8/4/4 16/14/14 13/13/13
f 4/1/1 1/8/8 9/10/10 12/9/9
f 6/6/6 5/5/5 13/13/13 14/12/12
f 1/8/8 2/7/7 10/11/11 9/10/10
f 7/3/3 3/2/2 11/16/16 15/15/15
